<svg xmlns="http://www.w3.org/2000/svg" viewBox="0 0 1200 675" width="1200" height="675">
<defs>
<linearGradient id="bg" x1="0" y1="0" x2="1" y2="1"><stop offset="0" stop-color="#090A29"/><stop offset=".55" stop-color="#12143A"/><stop offset="1" stop-color="#262A72"/></linearGradient>
<linearGradient id="coral" x1="0" y1="0" x2="1" y2="1"><stop offset="0" stop-color="#F59AB0"/><stop offset=".5" stop-color="#E0637A"/><stop offset="1" stop-color="#E65A34"/></linearGradient>
<linearGradient id="coral2" x1="0" y1="1" x2="1" y2="0"><stop offset="0" stop-color="#E65A34"/><stop offset="1" stop-color="#E0637A"/></linearGradient>
<linearGradient id="trunk" x1="0" y1="0" x2="1" y2="0"><stop offset="0" stop-color="#6E4326"/><stop offset=".5" stop-color="#A46A3E"/><stop offset="1" stop-color="#6E4326"/></linearGradient>
<linearGradient id="area" x1="0" y1="0" x2="0" y2="1"><stop offset="0" stop-color="#E0637A" stop-opacity=".5"/><stop offset="1" stop-color="#E0637A" stop-opacity="0"/></linearGradient>
<radialGradient id="halo" cx="0.5" cy="0.5" r=".6"><stop offset="0" stop-color="#E0637A" stop-opacity=".32"/><stop offset="1" stop-color="#E0637A" stop-opacity="0"/></radialGradient>
<filter id="glow" x="-60%" y="-60%" width="220%" height="220%"><feGaussianBlur stdDeviation="5" result="b"/><feMerge><feMergeNode in="b"/><feMergeNode in="SourceGraphic"/></feMerge></filter>
<pattern id="dots" width="28" height="28" patternUnits="userSpaceOnUse"><circle cx="2" cy="2" r="1.2" fill="#fff" fill-opacity=".08"/></pattern>
</defs>
<rect width="1200" height="675" fill="url(#bg)"/>
<rect width="1200" height="675" fill="url(#dots)"/>
<rect width="1200" height="675" fill="url(#halo)"/>
<circle cx="890.4" cy="382" r="3.2" fill="#F59AB0" fill-opacity="0.4"/>
<circle cx="790.2" cy="142.6" r="3.6" fill="#F59AB0" fill-opacity="0.6"/>
<circle cx="284.1" cy="286" r="2.2" fill="#E65A34" fill-opacity="0.4"/>
<circle cx="473.2" cy="358.2" r="1.7" fill="#E65A34" fill-opacity="0.3"/>
<circle cx="1047.5" cy="331.3" r="3.3" fill="#F59AB0" fill-opacity="0.2"/>
<circle cx="383.4" cy="478.3" r="3.4" fill="#F59AB0" fill-opacity="0.6"/>
<circle cx="813.9" cy="345.4" r="2.4" fill="#F59AB0" fill-opacity="0.4"/>
<circle cx="911.7" cy="55.6" r="1.1" fill="#E65A34" fill-opacity="0.3"/>
<circle cx="194.6" cy="71.5" r="1.7" fill="#E65A34" fill-opacity="0.6"/>
<circle cx="59.4" cy="109.5" r="3.1" fill="#E65A34" fill-opacity="0.3"/>
<circle cx="98.6" cy="57.3" r="1.9" fill="#F59AB0" fill-opacity="0.2"/>
<circle cx="301.5" cy="463.7" r="3" fill="#E65A34" fill-opacity="0.4"/>
<circle cx="1139.9" cy="184.1" r="1.2" fill="#E65A34" fill-opacity="0.3"/>
<circle cx="870" cy="592.5" r="3.3" fill="#E65A34" fill-opacity="0.5"/>
<circle cx="374.3" cy="320.7" r="3.5" fill="#E65A34" fill-opacity="0.3"/>
<circle cx="920.4" cy="143.4" r="1" fill="#F59AB0" fill-opacity="0.2"/>
<circle cx="188.7" cy="601.5" r="2.4" fill="#F59AB0" fill-opacity="0.5"/>
<circle cx="712.1" cy="119.1" r="2" fill="#F59AB0" fill-opacity="0.5"/>
<circle cx="87.4" cy="206.1" r="2.4" fill="#E65A34" fill-opacity="0.2"/>
<circle cx="1067.3" cy="16.7" r="1.2" fill="#E65A34" fill-opacity="0.5"/>
<circle cx="206.1" cy="191.3" r="1.1" fill="#F59AB0" fill-opacity="0.2"/>
<circle cx="728.5" cy="75.2" r="1.1" fill="#E65A34" fill-opacity="0.2"/>
<circle cx="46.5" cy="461.8" r="2.9" fill="#E65A34" fill-opacity="0.5"/>
<circle cx="70.6" cy="491.3" r="2.2" fill="#F59AB0" fill-opacity="0.5"/>
<circle cx="658.3" cy="341.1" r="1.3" fill="#E65A34" fill-opacity="0.3"/>
<circle cx="8" cy="629.7" r="3.5" fill="#E65A34" fill-opacity="0.3"/>
<circle cx="890.8" cy="103.1" r="1.5" fill="#F59AB0" fill-opacity="0.5"/>
<circle cx="1048.6" cy="563.7" r="2.2" fill="#F59AB0" fill-opacity="0.5"/>
<circle cx="578.3" cy="83.7" r="1.7" fill="#F59AB0" fill-opacity="0.5"/>
<circle cx="466.4" cy="379.5" r="3.4" fill="#E65A34" fill-opacity="0.6"/>
<circle cx="193.8" cy="392.9" r="1.9" fill="#F59AB0" fill-opacity="0.3"/>
<circle cx="799.6" cy="114.4" r="2.9" fill="#F59AB0" fill-opacity="0.6"/>
<circle cx="808.9" cy="100.8" r="3.2" fill="#E65A34" fill-opacity="0.6"/>
<circle cx="1063.2" cy="324.5" r="1" fill="#E65A34" fill-opacity="0.6"/>
<circle cx="268.4" cy="172.2" r="3" fill="#E65A34" fill-opacity="0.5"/>
<circle cx="509.5" cy="167.8" r="2" fill="#F59AB0" fill-opacity="0.6"/>
<circle cx="533.4" cy="674.6" r="1.2" fill="#E65A34" fill-opacity="0.3"/>
<circle cx="192.3" cy="533" r="3.3" fill="#E65A34" fill-opacity="0.6"/>
<circle cx="845.2" cy="79.8" r="2.7" fill="#E65A34" fill-opacity="0.5"/>
<circle cx="399.2" cy="194.1" r="1.8" fill="#F59AB0" fill-opacity="0.4"/>
<circle cx="1089.4" cy="367.6" r="1.1" fill="#F59AB0" fill-opacity="0.5"/>
<circle cx="1087.7" cy="559.3" r="2.5" fill="#F59AB0" fill-opacity="0.3"/>
<circle cx="501.4" cy="531.5" r="3" fill="#F59AB0" fill-opacity="0.6"/>
<circle cx="809.6" cy="57.3" r="2.6" fill="#E65A34" fill-opacity="0.6"/>
<circle cx="115.7" cy="400.6" r="1.1" fill="#F59AB0" fill-opacity="0.6"/>
<circle cx="126.6" cy="408.6" r="1" fill="#F59AB0" fill-opacity="0.4"/>
<circle cx="164.4" cy="633.5" r="3.4" fill="#F59AB0" fill-opacity="0.4"/>
<circle cx="1079.9" cy="635.7" r="2.1" fill="#E65A34" fill-opacity="0.4"/>
<circle cx="398.1" cy="140.2" r="2.5" fill="#F59AB0" fill-opacity="0.5"/>
<circle cx="1100.4" cy="240.6" r="2.8" fill="#F59AB0" fill-opacity="0.3"/>
<circle cx="600" cy="340" r="260" fill="none" stroke="#fff" stroke-opacity=".07"/>
<circle cx="600" cy="340" r="210" fill="none" stroke="#E0637A" stroke-opacity=".3" stroke-dasharray="4 10"/>
<g fill="none" stroke="#E0637A" stroke-opacity=".7" stroke-width="2.2" filter="url(#glow)">
<path d="M350 190 H385 L415 300"/><path d="M850 250 H815 L790 330"/><path d="M320 505 H390 L420 400"/><path d="M880 505 H810 L785 410"/>
</g>
<g fill="#12143A" stroke="#F59AB0" stroke-width="2.5"><circle cx="350" cy="190" r="5"/><circle cx="850" cy="250" r="5"/><circle cx="320" cy="505" r="5"/><circle cx="880" cy="505" r="5"/></g>
<path d="M448 345 A152 152 0 0 1 752 345" fill="none" stroke="url(#coral)" stroke-width="24" stroke-linecap="round" filter="url(#glow)"/>
<rect x="410" y="300" width="66" height="124" rx="30" fill="#1D2062" stroke="#E0637A" stroke-width="5" filter="url(#glow)"/><rect x="424" y="322" width="22" height="80" rx="11" fill="#E0637A" fill-opacity=".8"/>
<rect x="724" y="300" width="66" height="124" rx="30" fill="#1D2062" stroke="#E0637A" stroke-width="5" filter="url(#glow)"/><rect x="754" y="322" width="22" height="80" rx="11" fill="#E0637A" fill-opacity=".8"/>
<path d="M757 424 Q757 505 668 505" fill="none" stroke="#fff" stroke-opacity=".85" stroke-width="7" stroke-linecap="round"/>
<rect x="626" y="490" width="52" height="30" rx="15" fill="url(#coral)" filter="url(#glow)"/>
<rect x="90" y="142" width="260" height="96" rx="26" fill="#1D2062" stroke="#E0637A" stroke-opacity=".6" stroke-width="1.6"/>
<circle cx="126" cy="190" r="20" fill="url(#coral)"/>
<rect x="162" y="168" width="150" height="10" rx="5" fill="#fff" fill-opacity="0.65"/>
<rect x="162" y="190" width="110" height="10" rx="5" fill="#fff" fill-opacity="0.65"/>
<rect x="162" y="212" width="130" height="10" rx="5" fill="#fff" fill-opacity="0.65"/>

<rect x="850" y="202" width="270" height="96" rx="26" fill="url(#coral)" filter="url(#glow)"/>
<rect x="878" y="226" width="190" height="10" rx="5" fill="#12143A" fill-opacity="0.55"/>
<rect x="878" y="248" width="150" height="10" rx="5" fill="#12143A" fill-opacity="0.55"/>
<rect x="878" y="270" width="170" height="10" rx="5" fill="#12143A" fill-opacity="0.55"/>

<rect x="120" y="470" width="200" height="70" rx="24" fill="#1D2062" stroke="#E0637A" stroke-opacity=".6" stroke-width="1.6"/>
<circle cx="170" cy="505" r="8" fill="#E0637A"/><circle cx="200" cy="505" r="8" fill="#E0637A" fill-opacity=".7"/><circle cx="230" cy="505" r="8" fill="#E0637A" fill-opacity=".4"/>
<rect x="880" y="470" width="200" height="70" rx="24" fill="#1D2062" stroke="#E0637A" stroke-opacity=".6" stroke-width="1.6"/>
<circle cx="920" cy="505" r="20" fill="url(#coral)"/><path d="M910 505 l8 8 l14 -16" fill="none" stroke="#fff" stroke-width="4" stroke-linecap="round" stroke-linejoin="round"/>
<rect x="954" y="493" width="90" height="10" rx="5" fill="#fff" fill-opacity="0.6"/>
<rect x="954" y="515" width="60" height="10" rx="5" fill="#fff" fill-opacity="0.6"/>

<circle cx="1090" cy="110" r="52" fill="none" stroke="#E0637A" stroke-opacity=".4" stroke-dasharray="3 7"/>
<circle cx="1090" cy="110" r="40" fill="#12143A" stroke="#E0637A" stroke-width="4" filter="url(#glow)"/>
<path d="M1090 110 V85 M1090 110 L1108 121" stroke="#fff" stroke-width="4" stroke-linecap="round"/><circle cx="1090" cy="110" r="4.5" fill="#F59AB0"/>
</svg>