<svg xmlns="http://www.w3.org/2000/svg" viewBox="0 0 64 64"><rect width="64" height="64" rx="14" fill="#12143A"/><g transform="translate(3.83 4.38) scale(0.1119)"><line x1="250" y1="322" x2="194.75" y2="245.95" stroke="#FFFFFF" stroke-width="5.2" stroke-linecap="round"/><circle cx="194.75" cy="245.95" r="3.8" fill="#FFFFFF"/><line x1="194.75" y1="245.95" x2="129.85" y2="219.73" stroke="#FFFFFF" stroke-width="4" stroke-linecap="round"/><circle cx="129.85" cy="219.73" r="3.8" fill="#FFFFFF"/><line x1="129.85" y1="219.73" x2="78.13" y2="225.17" stroke="#FFFFFF" stroke-width="3" stroke-linecap="round"/><circle cx="78.13" cy="225.17" r="3.8" fill="#FFFFFF"/><line x1="78.13" y1="225.17" x2="43.84" y2="245.77" stroke="#FFFFFF" stroke-width="2.4" stroke-linecap="round"/><line x1="78.13" y1="225.17" x2="40.31" y2="212.15" stroke="#FFFFFF" stroke-width="2.4" stroke-linecap="round"/><line x1="129.85" y1="219.73" x2="96.43" y2="179.9" stroke="#FFFFFF" stroke-width="3" stroke-linecap="round"/><circle cx="96.43" cy="179.9" r="3.8" fill="#FFFFFF"/><line x1="96.43" y1="179.9" x2="60.18" y2="163" stroke="#FFFFFF" stroke-width="2.4" stroke-linecap="round"/><line x1="96.43" y1="179.9" x2="86.08" y2="141.26" stroke="#FFFFFF" stroke-width="2.4" stroke-linecap="round"/><line x1="194.75" y1="245.95" x2="153.61" y2="189.32" stroke="#FFFFFF" stroke-width="4" stroke-linecap="round"/><circle cx="153.61" cy="189.32" r="3.8" fill="#FFFFFF"/><line x1="153.61" y1="189.32" x2="106.87" y2="166.52" stroke="#FFFFFF" stroke-width="3" stroke-linecap="round"/><circle cx="106.87" cy="166.52" r="3.8" fill="#FFFFFF"/><line x1="106.87" y1="166.52" x2="66.88" y2="165.82" stroke="#FFFFFF" stroke-width="2.4" stroke-linecap="round"/><line x1="106.87" y1="166.52" x2="81.7" y2="135.43" stroke="#FFFFFF" stroke-width="2.4" stroke-linecap="round"/><line x1="153.61" y1="189.32" x2="146.37" y2="137.83" stroke="#FFFFFF" stroke-width="3" stroke-linecap="round"/><circle cx="146.37" cy="137.83" r="3.8" fill="#FFFFFF"/><line x1="146.37" y1="137.83" x2="124.58" y2="104.28" stroke="#FFFFFF" stroke-width="2.4" stroke-linecap="round"/><line x1="146.37" y1="137.83" x2="158.06" y2="99.58" stroke="#FFFFFF" stroke-width="2.4" stroke-linecap="round"/><line x1="194.75" y1="245.95" x2="189.87" y2="176.12" stroke="#FFFFFF" stroke-width="4" stroke-linecap="round"/><circle cx="189.87" cy="176.12" r="3.8" fill="#FFFFFF"/><line x1="189.87" y1="176.12" x2="162.31" y2="132.02" stroke="#FFFFFF" stroke-width="3" stroke-linecap="round"/><circle cx="162.31" cy="132.02" r="3.8" fill="#FFFFFF"/><line x1="162.31" y1="132.02" x2="128.76" y2="110.23" stroke="#FFFFFF" stroke-width="2.4" stroke-linecap="round"/><line x1="162.31" y1="132.02" x2="157.44" y2="92.32" stroke="#FFFFFF" stroke-width="2.4" stroke-linecap="round"/><line x1="189.87" y1="176.12" x2="211.02" y2="128.62" stroke="#FFFFFF" stroke-width="3" stroke-linecap="round"/><circle cx="211.02" cy="128.62" r="3.8" fill="#FFFFFF"/><line x1="211.02" y1="128.62" x2="210.32" y2="88.63" stroke="#FFFFFF" stroke-width="2.4" stroke-linecap="round"/><line x1="211.02" y1="128.62" x2="241.21" y2="102.38" stroke="#FFFFFF" stroke-width="2.4" stroke-linecap="round"/><line x1="250" y1="322" x2="250" y2="228" stroke="#FFFFFF" stroke-width="5.2" stroke-linecap="round"/><circle cx="250" cy="228" r="3.8" fill="#FFFFFF"/><line x1="250" y1="228" x2="212.91" y2="168.64" stroke="#FFFFFF" stroke-width="4" stroke-linecap="round"/><circle cx="212.91" cy="168.64" r="3.8" fill="#FFFFFF"/><line x1="212.91" y1="168.64" x2="167.88" y2="142.64" stroke="#FFFFFF" stroke-width="3" stroke-linecap="round"/><circle cx="167.88" cy="142.64" r="3.8" fill="#FFFFFF"/><line x1="167.88" y1="142.64" x2="128.03" y2="139.15" stroke="#FFFFFF" stroke-width="2.4" stroke-linecap="round"/><line x1="167.88" y1="142.64" x2="144.94" y2="109.87" stroke="#FFFFFF" stroke-width="2.4" stroke-linecap="round"/><line x1="212.91" y1="168.64" x2="209.28" y2="116.77" stroke="#FFFFFF" stroke-width="3" stroke-linecap="round"/><circle cx="209.28" cy="116.77" r="3.8" fill="#FFFFFF"/><line x1="209.28" y1="116.77" x2="189.89" y2="81.79" stroke="#FFFFFF" stroke-width="2.4" stroke-linecap="round"/><line x1="209.28" y1="116.77" x2="223.61" y2="79.43" stroke="#FFFFFF" stroke-width="2.4" stroke-linecap="round"/><line x1="250" y1="228" x2="250" y2="158" stroke="#FFFFFF" stroke-width="4" stroke-linecap="round"/><circle cx="250" cy="158" r="3.8" fill="#FFFFFF"/><line x1="250" y1="158" x2="225.59" y2="112.09" stroke="#FFFFFF" stroke-width="3" stroke-linecap="round"/><circle cx="225.59" cy="112.09" r="3.8" fill="#FFFFFF"/><line x1="225.59" y1="112.09" x2="193.64" y2="88.02" stroke="#FFFFFF" stroke-width="2.4" stroke-linecap="round"/><line x1="225.59" y1="112.09" x2="223.5" y2="72.14" stroke="#FFFFFF" stroke-width="2.4" stroke-linecap="round"/><line x1="250" y1="158" x2="274.41" y2="112.09" stroke="#FFFFFF" stroke-width="3" stroke-linecap="round"/><circle cx="274.41" cy="112.09" r="3.8" fill="#FFFFFF"/><line x1="274.41" y1="112.09" x2="276.5" y2="72.14" stroke="#FFFFFF" stroke-width="2.4" stroke-linecap="round"/><line x1="274.41" y1="112.09" x2="306.36" y2="88.02" stroke="#FFFFFF" stroke-width="2.4" stroke-linecap="round"/><line x1="250" y1="228" x2="287.09" y2="168.64" stroke="#FFFFFF" stroke-width="4" stroke-linecap="round"/><circle cx="287.09" cy="168.64" r="3.8" fill="#FFFFFF"/><line x1="287.09" y1="168.64" x2="290.72" y2="116.77" stroke="#FFFFFF" stroke-width="3" stroke-linecap="round"/><circle cx="290.72" cy="116.77" r="3.8" fill="#FFFFFF"/><line x1="290.72" y1="116.77" x2="276.39" y2="79.43" stroke="#FFFFFF" stroke-width="2.4" stroke-linecap="round"/><line x1="290.72" y1="116.77" x2="310.11" y2="81.79" stroke="#FFFFFF" stroke-width="2.4" stroke-linecap="round"/><line x1="287.09" y1="168.64" x2="332.12" y2="142.64" stroke="#FFFFFF" stroke-width="3" stroke-linecap="round"/><circle cx="332.12" cy="142.64" r="3.8" fill="#FFFFFF"/><line x1="332.12" y1="142.64" x2="355.06" y2="109.87" stroke="#FFFFFF" stroke-width="2.4" stroke-linecap="round"/><line x1="332.12" y1="142.64" x2="371.97" y2="139.15" stroke="#FFFFFF" stroke-width="2.4" stroke-linecap="round"/><line x1="250" y1="322" x2="305.25" y2="245.95" stroke="#FFFFFF" stroke-width="5.2" stroke-linecap="round"/><circle cx="305.25" cy="245.95" r="3.8" fill="#FFFFFF"/><line x1="305.25" y1="245.95" x2="310.13" y2="176.12" stroke="#FFFFFF" stroke-width="4" stroke-linecap="round"/><circle cx="310.13" cy="176.12" r="3.8" fill="#FFFFFF"/><line x1="310.13" y1="176.12" x2="288.98" y2="128.62" stroke="#FFFFFF" stroke-width="3" stroke-linecap="round"/><circle cx="288.98" cy="128.62" r="3.8" fill="#FFFFFF"/><line x1="288.98" y1="128.62" x2="258.79" y2="102.38" stroke="#FFFFFF" stroke-width="2.4" stroke-linecap="round"/><line x1="288.98" y1="128.62" x2="289.68" y2="88.63" stroke="#FFFFFF" stroke-width="2.4" stroke-linecap="round"/><line x1="310.13" y1="176.12" x2="337.69" y2="132.02" stroke="#FFFFFF" stroke-width="3" stroke-linecap="round"/><circle cx="337.69" cy="132.02" r="3.8" fill="#FFFFFF"/><line x1="337.69" y1="132.02" x2="342.56" y2="92.32" stroke="#FFFFFF" stroke-width="2.4" stroke-linecap="round"/><line x1="337.69" y1="132.02" x2="371.24" y2="110.23" stroke="#FFFFFF" stroke-width="2.4" stroke-linecap="round"/><line x1="305.25" y1="245.95" x2="346.39" y2="189.32" stroke="#FFFFFF" stroke-width="4" stroke-linecap="round"/><circle cx="346.39" cy="189.32" r="3.8" fill="#FFFFFF"/><line x1="346.39" y1="189.32" x2="353.63" y2="137.83" stroke="#FFFFFF" stroke-width="3" stroke-linecap="round"/><circle cx="353.63" cy="137.83" r="3.8" fill="#FFFFFF"/><line x1="353.63" y1="137.83" x2="341.94" y2="99.58" stroke="#FFFFFF" stroke-width="2.4" stroke-linecap="round"/><line x1="353.63" y1="137.83" x2="375.42" y2="104.28" stroke="#FFFFFF" stroke-width="2.4" stroke-linecap="round"/><line x1="346.39" y1="189.32" x2="393.13" y2="166.52" stroke="#FFFFFF" stroke-width="3" stroke-linecap="round"/><circle cx="393.13" cy="166.52" r="3.8" fill="#FFFFFF"/><line x1="393.13" y1="166.52" x2="418.3" y2="135.43" stroke="#FFFFFF" stroke-width="2.4" stroke-linecap="round"/><line x1="393.13" y1="166.52" x2="433.12" y2="165.82" stroke="#FFFFFF" stroke-width="2.4" stroke-linecap="round"/><line x1="305.25" y1="245.95" x2="370.15" y2="219.73" stroke="#FFFFFF" stroke-width="4" stroke-linecap="round"/><circle cx="370.15" cy="219.73" r="3.8" fill="#FFFFFF"/><line x1="370.15" y1="219.73" x2="403.57" y2="179.9" stroke="#FFFFFF" stroke-width="3" stroke-linecap="round"/><circle cx="403.57" cy="179.9" r="3.8" fill="#FFFFFF"/><line x1="403.57" y1="179.9" x2="413.92" y2="141.26" stroke="#FFFFFF" stroke-width="2.4" stroke-linecap="round"/><line x1="403.57" y1="179.9" x2="439.82" y2="163" stroke="#FFFFFF" stroke-width="2.4" stroke-linecap="round"/><line x1="370.15" y1="219.73" x2="421.87" y2="225.17" stroke="#FFFFFF" stroke-width="3" stroke-linecap="round"/><circle cx="421.87" cy="225.17" r="3.8" fill="#FFFFFF"/><line x1="421.87" y1="225.17" x2="459.69" y2="212.15" stroke="#FFFFFF" stroke-width="2.4" stroke-linecap="round"/><line x1="421.87" y1="225.17" x2="456.16" y2="245.77" stroke="#FFFFFF" stroke-width="2.4" stroke-linecap="round"/></g></svg>